<svg width="34" height="35" viewBox="0 0 34 35" fill="none" xmlns="http://www.w3.org/2000/svg">
<rect y="0.5" width="34" height="34" rx="17" fill="white"/>
<path fill-rule="evenodd" clip-rule="evenodd" d="M20.4286 25.5H13.5714C12.359 25.5 11.1962 25.0252 10.3389 24.1799C9.48163 23.3347 9 22.1883 9 20.993V14.007C9 12.8117 9.48163 11.6653 10.3389 10.8201C11.1962 9.97485 12.359 9.5 13.5714 9.5H20.4286C21.641 9.5 22.8038 9.97485 23.6611 10.8201C24.5184 11.6653 25 12.8117 25 14.007V20.993C25 21.5848 24.8818 22.1709 24.652 22.7177C24.4223 23.2645 24.0856 23.7614 23.6611 24.1799C23.2366 24.5984 22.7326 24.9304 22.178 25.1569C21.6234 25.3834 21.0289 25.5 20.4286 25.5ZM23.5143 13.669C23.5143 12.9219 23.2133 12.2054 22.6774 11.6772C22.1416 11.1489 21.4149 10.8521 20.6571 10.8521H13.2286C12.4708 10.8521 11.7441 11.1489 11.2083 11.6772C10.6725 12.2054 10.3714 12.9219 10.3714 13.669V20.993C10.3714 21.74 10.6725 22.4565 11.2083 22.9848C11.7441 23.5131 12.4708 23.8099 13.2286 23.8099H20.6571C21.4149 23.8099 22.1416 23.5131 22.6774 22.9848C23.2133 22.4565 23.5143 21.74 23.5143 20.993V13.669ZM21.2286 14.1197C21.0251 14.1197 20.8263 14.0602 20.6571 13.9488C20.488 13.8374 20.3561 13.679 20.2783 13.4937C20.2004 13.3084 20.1801 13.1045 20.2198 12.9078C20.2595 12.7111 20.3574 12.5304 20.5013 12.3886C20.6451 12.2467 20.8284 12.1502 21.0279 12.111C21.2274 12.0719 21.4342 12.092 21.6222 12.1687C21.8101 12.2455 21.9708 12.3755 22.0838 12.5422C22.1968 12.709 22.2571 12.9051 22.2571 13.1056C22.2571 13.3746 22.1488 13.6325 21.9559 13.8227C21.763 14.0129 21.5014 14.1197 21.2286 14.1197ZM16.9429 21.5563C16.1178 21.5563 15.3113 21.3151 14.6253 20.8632C13.9393 20.4113 13.4047 19.769 13.089 19.0175C12.7732 18.266 12.6906 17.4391 12.8516 16.6413C13.0125 15.8435 13.4098 15.1107 13.9932 14.5356C14.5766 13.9604 15.3199 13.5687 16.129 13.41C16.9382 13.2513 17.777 13.3328 18.5392 13.644C19.3014 13.9553 19.9529 14.4825 20.4113 15.1588C20.8696 15.8351 21.1143 16.6303 21.1143 17.4437C21.1143 18.5344 20.6748 19.5805 19.8925 20.3518C19.1102 21.123 18.0492 21.5563 16.9429 21.5563ZM16.9429 14.7958C16.4117 14.7958 15.8924 14.9511 15.4508 15.242C15.0091 15.533 14.6649 15.9465 14.4616 16.4304C14.2583 16.9142 14.2051 17.4466 14.3087 17.9602C14.4124 18.4739 14.6682 18.9457 15.0438 19.316C15.4194 19.6863 15.8979 19.9385 16.4189 20.0407C16.9399 20.1428 17.4799 20.0904 17.9706 19.89C18.4614 19.6896 18.8808 19.3502 19.1759 18.9147C19.4711 18.4793 19.6286 17.9674 19.6286 17.4437C19.6286 16.7414 19.3456 16.0679 18.842 15.5713C18.3383 15.0747 17.6552 14.7958 16.9429 14.7958Z" fill="#FF20A7"/>
<path fill-rule="evenodd" clip-rule="evenodd" d="M20.4286 25.5H13.5714C12.359 25.5 11.1962 25.0252 10.3389 24.1799C9.48163 23.3347 9 22.1883 9 20.993V14.007C9 12.8117 9.48163 11.6653 10.3389 10.8201C11.1962 9.97485 12.359 9.5 13.5714 9.5H20.4286C21.641 9.5 22.8038 9.97485 23.6611 10.8201C24.5184 11.6653 25 12.8117 25 14.007V20.993C25 21.5848 24.8818 22.1709 24.652 22.7177C24.4223 23.2645 24.0856 23.7614 23.6611 24.1799C23.2366 24.5984 22.7326 24.9304 22.178 25.1569C21.6234 25.3834 21.0289 25.5 20.4286 25.5ZM23.5143 13.669C23.5143 12.9219 23.2133 12.2054 22.6774 11.6772C22.1416 11.1489 21.4149 10.8521 20.6571 10.8521H13.2286C12.4708 10.8521 11.7441 11.1489 11.2083 11.6772C10.6725 12.2054 10.3714 12.9219 10.3714 13.669V20.993C10.3714 21.74 10.6725 22.4565 11.2083 22.9848C11.7441 23.5131 12.4708 23.8099 13.2286 23.8099H20.6571C21.4149 23.8099 22.1416 23.5131 22.6774 22.9848C23.2133 22.4565 23.5143 21.74 23.5143 20.993V13.669ZM21.2286 14.1197C21.0251 14.1197 20.8263 14.0602 20.6571 13.9488C20.488 13.8374 20.3561 13.679 20.2783 13.4937C20.2004 13.3084 20.1801 13.1045 20.2198 12.9078C20.2595 12.7111 20.3574 12.5304 20.5013 12.3886C20.6451 12.2467 20.8284 12.1502 21.0279 12.111C21.2274 12.0719 21.4342 12.092 21.6222 12.1687C21.8101 12.2455 21.9708 12.3755 22.0838 12.5422C22.1968 12.709 22.2571 12.9051 22.2571 13.1056C22.2571 13.3746 22.1488 13.6325 21.9559 13.8227C21.763 14.0129 21.5014 14.1197 21.2286 14.1197ZM16.9429 21.5563C16.1178 21.5563 15.3113 21.3151 14.6253 20.8632C13.9393 20.4113 13.4047 19.769 13.089 19.0175C12.7732 18.266 12.6906 17.4391 12.8516 16.6413C13.0125 15.8435 13.4098 15.1107 13.9932 14.5356C14.5766 13.9604 15.3199 13.5687 16.129 13.41C16.9382 13.2513 17.777 13.3328 18.5392 13.644C19.3014 13.9553 19.9529 14.4825 20.4113 15.1588C20.8696 15.8351 21.1143 16.6303 21.1143 17.4437C21.1143 18.5344 20.6748 19.5805 19.8925 20.3518C19.1102 21.123 18.0492 21.5563 16.9429 21.5563ZM16.9429 14.7958C16.4117 14.7958 15.8924 14.9511 15.4508 15.242C15.0091 15.533 14.6649 15.9465 14.4616 16.4304C14.2583 16.9142 14.2051 17.4466 14.3087 17.9602C14.4124 18.4739 14.6682 18.9457 15.0438 19.316C15.4194 19.6863 15.8979 19.9385 16.4189 20.0407C16.9399 20.1428 17.4799 20.0904 17.9706 19.89C18.4614 19.6896 18.8808 19.3502 19.1759 18.9147C19.4711 18.4793 19.6286 17.9674 19.6286 17.4437C19.6286 16.7414 19.3456 16.0679 18.842 15.5713C18.3383 15.0747 17.6552 14.7958 16.9429 14.7958Z" fill="url(#paint0_radial_416_232)"/>
<path fill-rule="evenodd" clip-rule="evenodd" d="M20.4286 25.5H13.5714C12.359 25.5 11.1962 25.0252 10.3389 24.1799C9.48163 23.3347 9 22.1883 9 20.993V14.007C9 12.8117 9.48163 11.6653 10.3389 10.8201C11.1962 9.97485 12.359 9.5 13.5714 9.5H20.4286C21.641 9.5 22.8038 9.97485 23.6611 10.8201C24.5184 11.6653 25 12.8117 25 14.007V20.993C25 21.5848 24.8818 22.1709 24.652 22.7177C24.4223 23.2645 24.0856 23.7614 23.6611 24.1799C23.2366 24.5984 22.7326 24.9304 22.178 25.1569C21.6234 25.3834 21.0289 25.5 20.4286 25.5ZM23.5143 13.669C23.5143 12.9219 23.2133 12.2054 22.6774 11.6772C22.1416 11.1489 21.4149 10.8521 20.6571 10.8521H13.2286C12.4708 10.8521 11.7441 11.1489 11.2083 11.6772C10.6725 12.2054 10.3714 12.9219 10.3714 13.669V20.993C10.3714 21.74 10.6725 22.4565 11.2083 22.9848C11.7441 23.5131 12.4708 23.8099 13.2286 23.8099H20.6571C21.4149 23.8099 22.1416 23.5131 22.6774 22.9848C23.2133 22.4565 23.5143 21.74 23.5143 20.993V13.669ZM21.2286 14.1197C21.0251 14.1197 20.8263 14.0602 20.6571 13.9488C20.488 13.8374 20.3561 13.679 20.2783 13.4937C20.2004 13.3084 20.1801 13.1045 20.2198 12.9078C20.2595 12.7111 20.3574 12.5304 20.5013 12.3886C20.6451 12.2467 20.8284 12.1502 21.0279 12.111C21.2274 12.0719 21.4342 12.092 21.6222 12.1687C21.8101 12.2455 21.9708 12.3755 22.0838 12.5422C22.1968 12.709 22.2571 12.9051 22.2571 13.1056C22.2571 13.3746 22.1488 13.6325 21.9559 13.8227C21.763 14.0129 21.5014 14.1197 21.2286 14.1197ZM16.9429 21.5563C16.1178 21.5563 15.3113 21.3151 14.6253 20.8632C13.9393 20.4113 13.4047 19.769 13.089 19.0175C12.7732 18.266 12.6906 17.4391 12.8516 16.6413C13.0125 15.8435 13.4098 15.1107 13.9932 14.5356C14.5766 13.9604 15.3199 13.5687 16.129 13.41C16.9382 13.2513 17.777 13.3328 18.5392 13.644C19.3014 13.9553 19.9529 14.4825 20.4113 15.1588C20.8696 15.8351 21.1143 16.6303 21.1143 17.4437C21.1143 18.5344 20.6748 19.5805 19.8925 20.3518C19.1102 21.123 18.0492 21.5563 16.9429 21.5563ZM16.9429 14.7958C16.4117 14.7958 15.8924 14.9511 15.4508 15.242C15.0091 15.533 14.6649 15.9465 14.4616 16.4304C14.2583 16.9142 14.2051 17.4466 14.3087 17.9602C14.4124 18.4739 14.6682 18.9457 15.0438 19.316C15.4194 19.6863 15.8979 19.9385 16.4189 20.0407C16.9399 20.1428 17.4799 20.0904 17.9706 19.89C18.4614 19.6896 18.8808 19.3502 19.1759 18.9147C19.4711 18.4793 19.6286 17.9674 19.6286 17.4437C19.6286 16.7414 19.3456 16.0679 18.842 15.5713C18.3383 15.0747 17.6552 14.7958 16.9429 14.7958Z" fill="url(#paint1_radial_416_232)"/>
<path fill-rule="evenodd" clip-rule="evenodd" d="M20.4286 25.5H13.5714C12.359 25.5 11.1962 25.0252 10.3389 24.1799C9.48163 23.3347 9 22.1883 9 20.993V14.007C9 12.8117 9.48163 11.6653 10.3389 10.8201C11.1962 9.97485 12.359 9.5 13.5714 9.5H20.4286C21.641 9.5 22.8038 9.97485 23.6611 10.8201C24.5184 11.6653 25 12.8117 25 14.007V20.993C25 21.5848 24.8818 22.1709 24.652 22.7177C24.4223 23.2645 24.0856 23.7614 23.6611 24.1799C23.2366 24.5984 22.7326 24.9304 22.178 25.1569C21.6234 25.3834 21.0289 25.5 20.4286 25.5ZM23.5143 13.669C23.5143 12.9219 23.2133 12.2054 22.6774 11.6772C22.1416 11.1489 21.4149 10.8521 20.6571 10.8521H13.2286C12.4708 10.8521 11.7441 11.1489 11.2083 11.6772C10.6725 12.2054 10.3714 12.9219 10.3714 13.669V20.993C10.3714 21.74 10.6725 22.4565 11.2083 22.9848C11.7441 23.5131 12.4708 23.8099 13.2286 23.8099H20.6571C21.4149 23.8099 22.1416 23.5131 22.6774 22.9848C23.2133 22.4565 23.5143 21.74 23.5143 20.993V13.669ZM21.2286 14.1197C21.0251 14.1197 20.8263 14.0602 20.6571 13.9488C20.488 13.8374 20.3561 13.679 20.2783 13.4937C20.2004 13.3084 20.1801 13.1045 20.2198 12.9078C20.2595 12.7111 20.3574 12.5304 20.5013 12.3886C20.6451 12.2467 20.8284 12.1502 21.0279 12.111C21.2274 12.0719 21.4342 12.092 21.6222 12.1687C21.8101 12.2455 21.9708 12.3755 22.0838 12.5422C22.1968 12.709 22.2571 12.9051 22.2571 13.1056C22.2571 13.3746 22.1488 13.6325 21.9559 13.8227C21.763 14.0129 21.5014 14.1197 21.2286 14.1197ZM16.9429 21.5563C16.1178 21.5563 15.3113 21.3151 14.6253 20.8632C13.9393 20.4113 13.4047 19.769 13.089 19.0175C12.7732 18.266 12.6906 17.4391 12.8516 16.6413C13.0125 15.8435 13.4098 15.1107 13.9932 14.5356C14.5766 13.9604 15.3199 13.5687 16.129 13.41C16.9382 13.2513 17.777 13.3328 18.5392 13.644C19.3014 13.9553 19.9529 14.4825 20.4113 15.1588C20.8696 15.8351 21.1143 16.6303 21.1143 17.4437C21.1143 18.5344 20.6748 19.5805 19.8925 20.3518C19.1102 21.123 18.0492 21.5563 16.9429 21.5563ZM16.9429 14.7958C16.4117 14.7958 15.8924 14.9511 15.4508 15.242C15.0091 15.533 14.6649 15.9465 14.4616 16.4304C14.2583 16.9142 14.2051 17.4466 14.3087 17.9602C14.4124 18.4739 14.6682 18.9457 15.0438 19.316C15.4194 19.6863 15.8979 19.9385 16.4189 20.0407C16.9399 20.1428 17.4799 20.0904 17.9706 19.89C18.4614 19.6896 18.8808 19.3502 19.1759 18.9147C19.4711 18.4793 19.6286 17.9674 19.6286 17.4437C19.6286 16.7414 19.3456 16.0679 18.842 15.5713C18.3383 15.0747 17.6552 14.7958 16.9429 14.7958Z" fill="#343433"/>
<defs>
<radialGradient id="paint0_radial_416_232" cx="0" cy="0" r="1" gradientUnits="userSpaceOnUse" gradientTransform="translate(13 25) rotate(106.302) scale(11.044)">
<stop stop-color="#FFFCB2"/>
<stop offset="0.233898" stop-color="#FFB21C" stop-opacity="0.81768"/>
<stop offset="1" stop-color="#FF24BE" stop-opacity="0"/>
</radialGradient>
<radialGradient id="paint1_radial_416_232" cx="0" cy="0" r="1" gradientUnits="userSpaceOnUse" gradientTransform="translate(12.8 9.5) rotate(75.3027) scale(6.30635 14.7887)">
<stop stop-color="#2E62DF"/>
<stop offset="1" stop-color="#6E48D8" stop-opacity="0"/>
</radialGradient>
</defs>
</svg>
